<svg width="27" height="27" viewBox="0 0 27 27" fill="none" xmlns="http://www.w3.org/2000/svg">
<path d="M13.2952 26.1898C20.3365 26.1898 26.0011 20.5251 26.0011 13.4839C26.0011 6.44268 20.3365 0.778015 13.2952 0.778015C6.25402 0.778015 0.589355 6.44268 0.589355 13.4839C0.589355 20.5251 6.25402 26.1898 13.2952 26.1898Z" fill="#2775CA"/>
<path d="M16.7895 15.4965C16.7895 13.6436 15.6777 13.0083 13.4542 12.7436C11.866 12.5318 11.5484 12.1083 11.5484 11.3671C11.5484 10.6258 12.0778 10.1495 13.1366 10.1495C14.0895 10.1495 14.619 10.4671 14.8836 11.2612C14.9366 11.4201 15.0954 11.5259 15.2542 11.5259H16.1012C16.313 11.5259 16.4718 11.3671 16.4718 11.1554V11.1024C16.26 9.93767 15.3071 9.0377 14.0895 8.93186V7.66127C14.0895 7.44946 13.9307 7.29064 13.666 7.23766H12.8719C12.6601 7.23766 12.5013 7.39648 12.4483 7.66127V8.87888C10.8601 9.09069 9.85432 10.1495 9.85432 11.4731C9.85432 13.2201 10.9131 13.9083 13.1366 14.1731C14.619 14.4377 15.0954 14.7554 15.0954 15.6025C15.0954 16.4496 14.3542 17.0319 13.3484 17.0319C11.9718 17.0319 11.4954 16.4495 11.3366 15.6553C11.2837 15.4437 11.1249 15.3377 10.9661 15.3377H10.066C9.85432 15.3377 9.6955 15.4965 9.6955 15.7083V15.7613C9.90717 17.0848 10.7543 18.0377 12.5013 18.3025V19.5731C12.5013 19.7848 12.6601 19.9436 12.9248 19.9966H13.7189C13.9307 19.9966 14.0895 19.8377 14.1425 19.5731V18.3025C15.7307 18.0377 16.7895 16.9259 16.7895 15.4965V15.4965Z" fill="white"/>
<path d="M10.5965 21.056C6.46709 19.5737 4.3494 14.9678 5.88478 10.8913C6.6789 8.66774 8.42595 6.97367 10.5965 6.17955C10.8083 6.07371 10.9141 5.91488 10.9141 5.65009V4.90896C10.9141 4.69715 10.8083 4.53833 10.5965 4.48547C10.5435 4.48547 10.4377 4.48547 10.3847 4.53833C5.35533 6.12656 2.60234 11.4737 4.19058 16.5031C5.14352 19.4677 7.42003 21.7442 10.3847 22.6972C10.5965 22.803 10.8083 22.6972 10.8612 22.4854C10.9141 22.4325 10.9141 22.3795 10.9141 22.2737V21.5324C10.9141 21.3736 10.7553 21.1619 10.5965 21.056ZM16.2083 4.53833C15.9965 4.43249 15.7847 4.53833 15.7318 4.75014C15.6789 4.80312 15.6789 4.85598 15.6789 4.96194V5.70308C15.6789 5.91488 15.8377 6.12656 15.9965 6.23253C20.1259 7.7148 22.2436 12.3207 20.7082 16.3972C19.9141 18.6208 18.167 20.3148 15.9965 21.109C15.7847 21.2148 15.6789 21.3736 15.6789 21.6384V22.3795C15.6789 22.5913 15.7847 22.7502 15.9965 22.803C16.0495 22.803 16.1553 22.803 16.2083 22.7502C21.2377 21.1619 23.9907 15.8148 22.4024 10.7854C21.4495 7.76778 19.12 5.49127 16.2083 4.53833V4.53833Z" fill="white"/>
</svg>
